<?xml version="1.0" standalone="no"?>
<!DOCTYPE svg PUBLIC "-//W3C//DTD SVG 20010904//EN"
 "http://www.w3.org/TR/2001/REC-SVG-20010904/DTD/svg10.dtd">
<svg version="1.0" xmlns="http://www.w3.org/2000/svg"
 width="500.000000pt" height="500.000000pt" viewBox="0 0 500.000000 500.000000"
 preserveAspectRatio="xMidYMid meet">
<metadata>
Created by potrace 1.14, written by Peter Selinger 2001-2017
</metadata>
<g transform="translate(0.000000,500.000000) scale(0.100000,-0.100000)"
fill="#000000" stroke="none">
<path d="M0 2500 l0 -2500 2500 0 2500 0 0 2500 0 2500 -2500 0 -2500 0 0
-2500z m900 1150 l0 -70 65 0 65 0 0 -90 0 -90 90 0 90 0 0 -265 0 -265 350 0
350 0 0 425 0 425 225 0 225 0 0 -70 0 -70 65 0 65 0 0 -90 0 -90 90 0 90 0 0
-1130 0 -1130 -220 0 -220 0 0 85 0 85 -90 0 -90 0 0 75 0 75 -70 0 -70 0 0
355 0 355 -350 0 -350 0 0 -515 0 -515 -225 0 -225 0 0 85 0 85 -85 0 -85 0 0
75 0 75 -70 0 -70 0 0 1130 0 1130 225 0 225 0 0 -70z m3570 0 l0 -70 70 0 70
0 0 -90 0 -90 85 0 85 0 0 -185 0 -185 -325 0 -325 0 0 -945 0 -945 -220 0
-220 0 0 85 0 85 -90 0 -90 0 0 75 0 75 -70 0 -70 0 0 785 0 785 -170 0 -170
0 0 85 0 85 -85 0 -84 0 -3 73 -3 72 -67 3 -68 3 0 184 0 185 875 0 875 0 0
-70z"/>
</g>
</svg>
